<?xml version="1.0" encoding="utf-8"?>
<!-- Generator: Adobe Illustrator 21.1.0, SVG Export Plug-In . SVG Version: 6.00 Build 0)  -->
<svg version="1.1" id="Layer_1" xmlns="http://www.w3.org/2000/svg" xmlns:xlink="http://www.w3.org/1999/xlink" x="0px" y="0px"
	 viewBox="0 0 212 118" style="enable-background:new 0 0 212 118;" xml:space="preserve">
<style type="text/css">
	.st0{fill:#6E9053;}
	.st1{fill:#5271A3;}
	.st2{fill:#D1D1D1;}
	.st3{font-family:'Stalemate-Regular';}
	.st4{font-size:79.5844px;}
</style>
<g>
	<g>
		<path class="st0" d="M136.5,111.3c0,0-5.5-16.8-5.9-24.1c0,0-16.8-26.7-7.6-53.9c0,0,2.6,2.1,5,3.6c0,0-2.3-5.2-4.3-6.8
			c0,0,6.5-20.2,14.7-29.3c0,0,26.8,42.2-3.1,83.1c0,0-2.6-52.2,1.1-63.6c0,0-10.1,43.6-3.4,66.6c0,0,3.5,22.8,4.5,24.4
			C137.6,111.1,137.7,115.1,136.5,111.3z"/>
		<path class="st1" d="M153.1,111.3c0,0-5.5-16.8-5.9-24.1c0,0-16.8-26.7-7.6-53.9c0,0,2.6,2.1,5,3.6c0,0-2.3-5.2-4.3-6.8
			c0,0,6.5-20.2,14.7-29.3c0,0,26.8,42.2-3.1,83.1c0,0-2.6-52.2,1.1-63.6c0,0-10.1,43.6-3.4,66.6c0,0,3.5,22.8,4.5,24.4
			C154.3,111.1,154.3,115.1,153.1,111.3z"/>
	</g>
	<text transform="matrix(1 0 0 1 1.0257 78.5597)" class="st2 st3 st4">Miche  e jl</text>
</g>
</svg>
